<svg width="28" height="28" viewBox="0 0 28 28" fill="none" xmlns="http://www.w3.org/2000/svg">
<g clip-path="url(#clip0_56_186)">
<path d="M20.9999 8.16667H24.4999C24.8093 8.16667 25.1061 8.28958 25.3249 8.50838C25.5437 8.72717 25.6666 9.02391 25.6666 9.33333V23.3333C25.6666 23.6428 25.5437 23.9395 25.3249 24.1583C25.1061 24.3771 24.8093 24.5 24.4999 24.5H3.49992C3.1905 24.5 2.89375 24.3771 2.67496 24.1583C2.45617 23.9395 2.33325 23.6428 2.33325 23.3333V4.66667C2.33325 4.35725 2.45617 4.0605 2.67496 3.84171C2.89375 3.62292 3.1905 3.5 3.49992 3.5H20.9999V8.16667ZM4.66659 10.5V22.1667H23.3333V10.5H4.66659ZM4.66659 5.83333V8.16667H18.6666V5.83333H4.66659ZM17.4999 15.1667H20.9999V17.5H17.4999V15.1667Z" fill="#508FF4"/>
</g>
<defs>
<clipPath id="clip0_56_186">
<rect width="28" height="28" fill="white"/>
</clipPath>
</defs>
</svg>
