<svg width="24" height="24" viewBox="0 0 24 24" fill="none" xmlns="http://www.w3.org/2000/svg">
<path d="M11.9999 23.6667C5.55642 23.6667 0.333252 18.4435 0.333252 12C0.333252 5.5565 5.55642 0.333336 11.9999 0.333336C18.4434 0.333336 23.6666 5.5565 23.6666 12C23.6666 18.4435 18.4434 23.6667 11.9999 23.6667ZM11.9999 21.3333C14.4753 21.3333 16.8492 20.35 18.5996 18.5997C20.3499 16.8493 21.3333 14.4754 21.3333 12C21.3333 9.52465 20.3499 7.15068 18.5996 5.40034C16.8492 3.65 14.4753 2.66667 11.9999 2.66667C9.52457 2.66667 7.1506 3.65 5.40026 5.40034C3.64992 7.15068 2.66659 9.52465 2.66659 12C2.66659 14.4754 3.64992 16.8493 5.40026 18.5997C7.1506 20.35 9.52457 21.3333 11.9999 21.3333ZM10.8333 16.6667H7.33325V7.33334H10.8333V5H13.1666V7.33334H14.3333C14.8749 7.33334 15.4059 7.48417 15.8666 7.76894C16.3274 8.05371 16.6998 8.46115 16.942 8.94563C17.1842 9.43011 17.2868 9.97247 17.2381 10.5119C17.1895 11.0514 16.9916 11.5667 16.6666 12C16.9916 12.4333 17.1895 12.9486 17.2381 13.4881C17.2868 14.0275 17.1842 14.5699 16.942 15.0544C16.6998 15.5389 16.3274 15.9463 15.8666 16.2311C15.4059 16.5158 14.8749 16.6667 14.3333 16.6667H13.1666V19H10.8333V16.6667ZM9.66659 13.1667V14.3333H14.3333C14.488 14.3333 14.6363 14.2719 14.7457 14.1625C14.8551 14.0531 14.9166 13.9047 14.9166 13.75C14.9166 13.5953 14.8551 13.4469 14.7457 13.3375C14.6363 13.2281 14.488 13.1667 14.3333 13.1667H9.66659ZM9.66659 9.66667V10.8333H14.3333C14.488 10.8333 14.6363 10.7719 14.7457 10.6625C14.8551 10.5531 14.9166 10.4047 14.9166 10.25C14.9166 10.0953 14.8551 9.94692 14.7457 9.83752C14.6363 9.72813 14.488 9.66667 14.3333 9.66667H9.66659Z" fill="#508FF4"/>
</svg>
