<svg width="27" height="23" viewBox="0 0 27 23" fill="none" xmlns="http://www.w3.org/2000/svg">
<path d="M4.83342 8.49996C5.14283 8.49996 5.43958 8.62288 5.65837 8.84167C5.87717 9.06047 6.00008 9.35721 6.00008 9.66663C7.83308 9.66393 9.61323 10.2806 11.0517 11.4166H13.5834C15.1386 11.4166 16.5351 12.0933 17.4964 13.1666H21.1667C22.2696 13.1663 23.3499 13.4786 24.2824 14.0673C25.2149 14.6561 25.9614 15.497 26.4354 16.4928C23.6763 20.134 19.2091 22.5 14.1667 22.5C10.9117 22.5 8.15842 21.7965 5.93008 20.5656C5.84847 20.7909 5.69936 20.9854 5.5031 21.1228C5.30684 21.2602 5.07298 21.3337 4.83342 21.3333H1.33341C1.024 21.3333 0.727249 21.2104 0.508457 20.9916C0.289664 20.7728 0.166748 20.476 0.166748 20.1666V9.66663C0.166748 9.35721 0.289664 9.06047 0.508457 8.84167C0.727249 8.62288 1.024 8.49996 1.33341 8.49996H4.83342ZM6.00125 12L6.00008 17.859L6.05258 17.8963C8.14675 19.3663 10.8744 20.1666 14.1667 20.1666C17.6714 20.1666 20.9322 18.818 23.3076 16.515L23.4627 16.3598L23.3227 16.2431C22.7719 15.8117 22.1041 15.5556 21.4059 15.5081L21.1667 15.5H18.7039C18.7879 15.8756 18.8334 16.2653 18.8334 16.6666V17.8333H8.33342V15.5L16.2551 15.4988L16.2154 15.4078C15.9918 14.9406 15.6479 14.5413 15.219 14.251C14.7901 13.9607 14.2916 13.7898 13.7747 13.7558L13.5834 13.75H10.1651C9.62295 13.1955 8.9754 12.755 8.26052 12.4545C7.54565 12.1539 6.77789 11.9994 6.00242 12H6.00125ZM3.66675 10.8333H2.50008V19H3.66675V10.8333ZM20.0001 3.8333C20.9283 3.8333 21.8186 4.20205 22.475 4.85842C23.1313 5.5148 23.5001 6.40504 23.5001 7.3333C23.5001 8.26156 23.1313 9.15179 22.475 9.80817C21.8186 10.4645 20.9283 10.8333 20.0001 10.8333C19.0718 10.8333 18.1816 10.4645 17.5252 9.80817C16.8688 9.15179 16.5001 8.26156 16.5001 7.3333C16.5001 6.40504 16.8688 5.5148 17.5252 4.85842C18.1816 4.20205 19.0718 3.8333 20.0001 3.8333ZM20.0001 6.16663C19.6907 6.16663 19.3939 6.28955 19.1751 6.50834C18.9563 6.72713 18.8334 7.02388 18.8334 7.3333C18.8334 7.64272 18.9563 7.93946 19.1751 8.15826C19.3939 8.37705 19.6907 8.49996 20.0001 8.49996C20.3095 8.49996 20.6062 8.37705 20.825 8.15826C21.0438 7.93946 21.1667 7.64272 21.1667 7.3333C21.1667 7.02388 21.0438 6.72713 20.825 6.50834C20.6062 6.28955 20.3095 6.16663 20.0001 6.16663ZM11.8334 0.333298C12.7617 0.333298 13.6519 0.702047 14.3083 1.35842C14.9647 2.0148 15.3334 2.90504 15.3334 3.8333C15.3334 4.76156 14.9647 5.65179 14.3083 6.30817C13.6519 6.96455 12.7617 7.3333 11.8334 7.3333C10.9052 7.3333 10.0149 6.96455 9.35854 6.30817C8.70216 5.65179 8.33342 4.76156 8.33342 3.8333C8.33342 2.90504 8.70216 2.0148 9.35854 1.35842C10.0149 0.702047 10.9052 0.333298 11.8334 0.333298ZM11.8334 2.66663C11.524 2.66663 11.2273 2.78955 11.0085 3.00834C10.7897 3.22713 10.6667 3.52388 10.6667 3.8333C10.6667 4.14272 10.7897 4.43946 11.0085 4.65826C11.2273 4.87705 11.524 4.99996 11.8334 4.99996C12.1428 4.99996 12.4396 4.87705 12.6584 4.65826C12.8772 4.43946 13.0001 4.14272 13.0001 3.8333C13.0001 3.52388 12.8772 3.22713 12.6584 3.00834C12.4396 2.78955 12.1428 2.66663 11.8334 2.66663Z" fill="#508FF4"/>
</svg>
