<svg width="28" height="28" viewBox="0 0 28 28" fill="none" xmlns="http://www.w3.org/2000/svg">
<g clip-path="url(#clip0_1_1792)">
<path d="M15.1664 9.33341V18.6667C15.1664 19.595 14.7977 20.4852 14.1413 21.1416C13.4849 21.798 12.5947 22.1667 11.6664 22.1667H9.13475C8.85953 22.9455 8.31786 23.6019 7.60548 24.0198C6.8931 24.4378 6.05589 24.5905 5.24183 24.4509C4.42778 24.3112 3.68929 23.8883 3.1569 23.2568C2.62452 22.6254 2.33252 21.826 2.33252 21.0001C2.33252 20.1741 2.62452 19.3748 3.1569 18.7433C3.68929 18.1118 4.42778 17.6889 5.24183 17.5493C6.05589 17.4097 6.8931 17.5623 7.60548 17.9803C8.31786 18.3983 8.85953 19.0547 9.13475 19.8334H11.6664C11.9758 19.8334 12.2726 19.7105 12.4914 19.4917C12.7102 19.2729 12.8331 18.9762 12.8331 18.6667V9.33341C12.8331 8.40515 13.2018 7.51491 13.8582 6.85853C14.5146 6.20215 15.4048 5.83341 16.3331 5.83341H19.8331V2.3334L25.6664 7.00007L19.8331 11.6667V8.16674H16.3331C16.0237 8.16674 15.7269 8.28966 15.5081 8.50845C15.2893 8.72724 15.1664 9.02399 15.1664 9.33341ZM5.83309 22.1667C6.14251 22.1667 6.43925 22.0438 6.65805 21.825C6.87684 21.6062 6.99975 21.3095 6.99975 21.0001C6.99975 20.6907 6.87684 20.3939 6.65805 20.1751C6.43925 19.9563 6.14251 19.8334 5.83309 19.8334C5.52367 19.8334 5.22692 19.9563 5.00813 20.1751C4.78934 20.3939 4.66642 20.6907 4.66642 21.0001C4.66642 21.3095 4.78934 21.6062 5.00813 21.825C5.22692 22.0438 5.52367 22.1667 5.83309 22.1667Z" fill="white"/>
</g>
<defs>
<clipPath id="clip0_1_1792">
<rect width="28" height="28" fill="white"/>
</clipPath>
</defs>
</svg>
