<svg width="28" height="28" viewBox="0 0 28 28" fill="none" xmlns="http://www.w3.org/2000/svg">
<g clip-path="url(#clip0_1_1795)">
<path d="M1.1665 25.6665C1.1665 23.1912 2.14983 20.8172 3.90017 19.0669C5.65051 17.3165 8.02448 16.3332 10.4998 16.3332C12.9752 16.3332 15.3492 17.3165 17.0995 19.0669C18.8498 20.8172 19.8332 23.1912 19.8332 25.6665H17.4998C17.4998 23.81 16.7623 22.0295 15.4496 20.7168C14.1368 19.404 12.3564 18.6665 10.4998 18.6665C8.64332 18.6665 6.86284 19.404 5.55009 20.7168C4.23734 22.0295 3.49984 23.81 3.49984 25.6665H1.1665ZM10.4998 15.1665C6.63234 15.1665 3.49984 12.034 3.49984 8.16652C3.49984 4.29902 6.63234 1.16652 10.4998 1.16652C14.3673 1.16652 17.4998 4.29902 17.4998 8.16652C17.4998 12.034 14.3673 15.1665 10.4998 15.1665ZM10.4998 12.8332C13.0782 12.8332 15.1665 10.7449 15.1665 8.16652C15.1665 5.58819 13.0782 3.49985 10.4998 3.49985C7.9215 3.49985 5.83317 5.58819 5.83317 8.16652C5.83317 10.7449 7.9215 12.8332 10.4998 12.8332ZM25.1392 0.91452C26.2571 3.16832 26.8369 5.65071 26.8332 8.16652C26.8332 10.7717 26.223 13.2345 25.1392 15.4185L23.22 14.0232C24.0661 12.1868 24.5028 10.1884 24.4998 8.16652C24.4998 6.07585 24.0413 4.09135 23.22 2.30985L25.1392 0.91452ZM21.2868 3.71452C21.8695 5.12637 22.1684 6.63916 22.1665 8.16652C22.1684 9.69388 21.8695 11.2067 21.2868 12.6185L19.3303 11.1952C19.6642 10.2204 19.8341 9.19693 19.8332 8.16652C19.8345 7.13618 19.665 6.11275 19.3315 5.13785L21.2868 3.71452Z" fill="white"/>
</g>
<defs>
<clipPath id="clip0_1_1795">
<rect width="28" height="28" fill="white"/>
</clipPath>
</defs>
</svg>
